<svg xmlns="http://www.w3.org/2000/svg" width="207" height="51" role="img" aria-label="RESUME.PDF" shape-rendering="crispEdges">
  <rect width="207" height="51" fill="#000000"/>
  <path d="M15 15h12v3h-12zM15 18h3v3h-3zM27 18h3v3h-3zM15 21h3v3h-3zM27 21h3v3h-3zM15 24h12v3h-12zM15 27h3v3h-3zM21 27h3v3h-3zM15 30h3v3h-3zM24 30h3v3h-3zM15 33h3v3h-3zM27 33h3v3h-3zM33 15h15v3h-15zM33 18h3v3h-3zM33 21h3v3h-3zM33 24h12v3h-12zM33 27h3v3h-3zM33 30h3v3h-3zM33 33h15v3h-15zM54 15h12v3h-12zM51 18h3v3h-3zM51 21h3v3h-3zM54 24h9v3h-9zM63 27h3v3h-3zM63 30h3v3h-3zM51 33h12v3h-12zM69 15h3v3h-3zM81 15h3v3h-3zM69 18h3v3h-3zM81 18h3v3h-3zM69 21h3v3h-3zM81 21h3v3h-3zM69 24h3v3h-3zM81 24h3v3h-3zM69 27h3v3h-3zM81 27h3v3h-3zM69 30h3v3h-3zM81 30h3v3h-3zM72 33h9v3h-9zM87 15h3v3h-3zM99 15h3v3h-3zM87 18h6v3h-6zM96 18h6v3h-6zM87 21h3v3h-3zM93 21h3v3h-3zM99 21h3v3h-3zM87 24h3v3h-3zM93 24h3v3h-3zM99 24h3v3h-3zM87 27h3v3h-3zM99 27h3v3h-3zM87 30h3v3h-3zM99 30h3v3h-3zM87 33h3v3h-3zM99 33h3v3h-3zM105 15h15v3h-15zM105 18h3v3h-3zM105 21h3v3h-3zM105 24h12v3h-12zM105 27h3v3h-3zM105 30h3v3h-3zM105 33h15v3h-15zM126 30h6v3h-6zM126 33h6v3h-6zM141 15h12v3h-12zM141 18h3v3h-3zM153 18h3v3h-3zM141 21h3v3h-3zM153 21h3v3h-3zM141 24h12v3h-12zM141 27h3v3h-3zM141 30h3v3h-3zM141 33h3v3h-3zM159 15h12v3h-12zM159 18h3v3h-3zM171 18h3v3h-3zM159 21h3v3h-3zM171 21h3v3h-3zM159 24h3v3h-3zM171 24h3v3h-3zM159 27h3v3h-3zM171 27h3v3h-3zM159 30h3v3h-3zM171 30h3v3h-3zM159 33h12v3h-12zM177 15h15v3h-15zM177 18h3v3h-3zM177 21h3v3h-3zM177 24h12v3h-12zM177 27h3v3h-3zM177 30h3v3h-3zM177 33h3v3h-3z" fill="#00ff41"/>
  <rect x="0" y="0" width="207" height="1" fill="#000000" opacity="0.18"/><rect x="0" y="3" width="207" height="1" fill="#000000" opacity="0.18"/><rect x="0" y="6" width="207" height="1" fill="#000000" opacity="0.18"/><rect x="0" y="9" width="207" height="1" fill="#000000" opacity="0.18"/><rect x="0" y="12" width="207" height="1" fill="#000000" opacity="0.18"/><rect x="0" y="15" width="207" height="1" fill="#000000" opacity="0.18"/><rect x="0" y="18" width="207" height="1" fill="#000000" opacity="0.18"/><rect x="0" y="21" width="207" height="1" fill="#000000" opacity="0.18"/><rect x="0" y="24" width="207" height="1" fill="#000000" opacity="0.18"/><rect x="0" y="27" width="207" height="1" fill="#000000" opacity="0.18"/><rect x="0" y="30" width="207" height="1" fill="#000000" opacity="0.18"/><rect x="0" y="33" width="207" height="1" fill="#000000" opacity="0.18"/><rect x="0" y="36" width="207" height="1" fill="#000000" opacity="0.18"/><rect x="0" y="39" width="207" height="1" fill="#000000" opacity="0.18"/><rect x="0" y="42" width="207" height="1" fill="#000000" opacity="0.18"/><rect x="0" y="45" width="207" height="1" fill="#000000" opacity="0.18"/><rect x="0" y="48" width="207" height="1" fill="#000000" opacity="0.18"/>
  <path d="M0 0h207v3H0z M0 48h207v3H0z M0 0h3v51H0z M204 0h3v51h-3z" fill="#00ff41"/>
  <path d="M0 0h3v3H0z M204 0h3v3h-3z M0 48h3v3H0z M204 48h3v3h-3z" fill="#000000"/>
</svg>
