<svg xmlns="http://www.w3.org/2000/svg" width="189" height="51" role="img" aria-label="PORTFOLIO" shape-rendering="crispEdges">
  <rect width="189" height="51" fill="#000000"/>
  <path d="M15 15h12v3h-12zM15 18h3v3h-3zM27 18h3v3h-3zM15 21h3v3h-3zM27 21h3v3h-3zM15 24h12v3h-12zM15 27h3v3h-3zM15 30h3v3h-3zM15 33h3v3h-3zM36 15h9v3h-9zM33 18h3v3h-3zM45 18h3v3h-3zM33 21h3v3h-3zM45 21h3v3h-3zM33 24h3v3h-3zM45 24h3v3h-3zM33 27h3v3h-3zM45 27h3v3h-3zM33 30h3v3h-3zM45 30h3v3h-3zM36 33h9v3h-9zM51 15h12v3h-12zM51 18h3v3h-3zM63 18h3v3h-3zM51 21h3v3h-3zM63 21h3v3h-3zM51 24h12v3h-12zM51 27h3v3h-3zM57 27h3v3h-3zM51 30h3v3h-3zM60 30h3v3h-3zM51 33h3v3h-3zM63 33h3v3h-3zM69 15h15v3h-15zM75 18h3v3h-3zM75 21h3v3h-3zM75 24h3v3h-3zM75 27h3v3h-3zM75 30h3v3h-3zM75 33h3v3h-3zM87 15h15v3h-15zM87 18h3v3h-3zM87 21h3v3h-3zM87 24h12v3h-12zM87 27h3v3h-3zM87 30h3v3h-3zM87 33h3v3h-3zM108 15h9v3h-9zM105 18h3v3h-3zM117 18h3v3h-3zM105 21h3v3h-3zM117 21h3v3h-3zM105 24h3v3h-3zM117 24h3v3h-3zM105 27h3v3h-3zM117 27h3v3h-3zM105 30h3v3h-3zM117 30h3v3h-3zM108 33h9v3h-9zM123 15h3v3h-3zM123 18h3v3h-3zM123 21h3v3h-3zM123 24h3v3h-3zM123 27h3v3h-3zM123 30h3v3h-3zM123 33h15v3h-15zM141 15h15v3h-15zM147 18h3v3h-3zM147 21h3v3h-3zM147 24h3v3h-3zM147 27h3v3h-3zM147 30h3v3h-3zM141 33h15v3h-15zM162 15h9v3h-9zM159 18h3v3h-3zM171 18h3v3h-3zM159 21h3v3h-3zM171 21h3v3h-3zM159 24h3v3h-3zM171 24h3v3h-3zM159 27h3v3h-3zM171 27h3v3h-3zM159 30h3v3h-3zM171 30h3v3h-3zM162 33h9v3h-9z" fill="#00ff41"/>
  <rect x="0" y="0" width="189" height="1" fill="#000000" opacity="0.18"/><rect x="0" y="3" width="189" height="1" fill="#000000" opacity="0.18"/><rect x="0" y="6" width="189" height="1" fill="#000000" opacity="0.18"/><rect x="0" y="9" width="189" height="1" fill="#000000" opacity="0.18"/><rect x="0" y="12" width="189" height="1" fill="#000000" opacity="0.18"/><rect x="0" y="15" width="189" height="1" fill="#000000" opacity="0.18"/><rect x="0" y="18" width="189" height="1" fill="#000000" opacity="0.18"/><rect x="0" y="21" width="189" height="1" fill="#000000" opacity="0.18"/><rect x="0" y="24" width="189" height="1" fill="#000000" opacity="0.18"/><rect x="0" y="27" width="189" height="1" fill="#000000" opacity="0.18"/><rect x="0" y="30" width="189" height="1" fill="#000000" opacity="0.18"/><rect x="0" y="33" width="189" height="1" fill="#000000" opacity="0.18"/><rect x="0" y="36" width="189" height="1" fill="#000000" opacity="0.18"/><rect x="0" y="39" width="189" height="1" fill="#000000" opacity="0.18"/><rect x="0" y="42" width="189" height="1" fill="#000000" opacity="0.18"/><rect x="0" y="45" width="189" height="1" fill="#000000" opacity="0.18"/><rect x="0" y="48" width="189" height="1" fill="#000000" opacity="0.18"/>
  <path d="M0 0h189v3H0z M0 48h189v3H0z M0 0h3v51H0z M186 0h3v51h-3z" fill="#00ff41"/>
  <path d="M0 0h3v3H0z M186 0h3v3h-3z M0 48h3v3H0z M186 48h3v3h-3z" fill="#000000"/>
</svg>
